# xmcd CD database file
#
# Track frame offsets:
#	150
#	22297
#	43375
#	65145
#	88854
#	108517
#	127945
#	147387
#	167445
#
# Disc length: 2493 seconds
#
# Revision: 0
# Processed by: cddbd v1.5.2PL0 Copyright (c) Steve Scherf et al.
# Submitted via: CDex 1.51
#
DISCID=8609bb09
DTITLE=Varios artistas - Salsa y Merengue
DYEAR=1995
DGENRE=Merengue
TTITLE0=FIESTA SABROSA- Los sabrosos del merengue
TTITLE1=ESTO ES PA´ GOZA-Agua Buena
TTITLE2=COMENZO LA FIESTA-Yvonne
TTITLE3=DALE COMO ES-Roberto Roena
TTITLE4=LA FIESTA YA SE ENCENDIO-Los sabrosos del merengue
TTITLE5=EL MAMBO-Agua Buena
TTITLE6=TOCAME LA SIRENA-La Banda Gorda
TTITLE7=EL PODER DE LAS MUJERES-Yvonne
TTITLE8=EL MACHO-Oro negro
EXTD=YEAR: 1995
EXTT0=
EXTT1=
EXTT2=
EXTT3=
EXTT4=
EXTT5=
EXTT6=
EXTT7=
EXTT8=
PLAYORDER=
